<?xml version="1.0" encoding="utf-8"?>
<!-- Generator: Adobe Illustrator 21.1.0, SVG Export Plug-In . SVG Version: 6.00 Build 0)  -->
<svg version="1.1" id="Warstwa_1" xmlns="http://www.w3.org/2000/svg" xmlns:xlink="http://www.w3.org/1999/xlink" x="0px" y="0px"
	 viewBox="0 0 2659.4 2659.3" style="enable-background:new 0 0 2659.4 2659.3;" xml:space="preserve">
<style type="text/css">
	.st0{fill:#FFFFFF;}
	.st1{fill-opacity:0.95;}
	.st2{fill:#FFFFFF;fill-opacity:0.95;}
</style>
<title>Zasób 1</title>
<g id="svg1356">
	<g id="layer1">
		<g id="g2261">
			<g id="satellite">
				<path id="path1239" d="M1073.9,1967c61.7-61.7,26.3-197.1-79.1-302.5l0,0c-105.4-105.4-240.8-140.8-302.5-79.1l0,0
					c-0.9,0.9-1.7,1.9-2.5,2.8l-0.1-0.1l-0.4,0.7c-8.9,9.9-15.8,21.5-20.1,34.1l-214.1,363.2l0.1,0.1c-0.5,0.4-1,0.8-1.5,1.3
					c-35.3,35.3-15,112.7,45.2,173l0,0c60.3,60.3,137.7,80.5,173,45.2l0,0c0.4-0.5,0.9-1,1.3-1.5l0,0l364.2-214.7
					c11.9-4.2,22.9-10.7,32.4-19.1l1.3-0.8l-0.1-0.2C1072,1968.7,1072.9,1967.8,1073.9,1967L1073.9,1967z"/>
				<path id="ellipse1241" d="M994.8,1664.5c105.4,105.4,140.8,240.9,79.1,302.6s-197.2,26.3-302.6-79.1l0,0
					c-105.4-105.4-140.8-240.9-79.1-302.6l0,0C753.9,1523.7,889.4,1559.1,994.8,1664.5z"/>
				<path id="ellipse1243" class="st0" d="M981.5,1677.8c92.9,92.9,124.1,212.2,69.7,266.6s-173.8,23.2-266.6-69.7l0,0
					c-92.9-92.9-124.1-212.2-69.7-266.6l0,0C769.3,1553.8,888.7,1585,981.5,1677.8z"/>
				<path id="path1245" class="st0" d="M690,1660.2c-10,62.7,27.2,147.2,94.6,214.6s151.7,104.6,214.4,94.8
					c10-62.7-27.2-147.2-94.6-214.6S752.7,1650.3,690,1660.2z"/>
				<path id="path1247" class="st0" d="M867.7,1791.6c-54.5-54.4-121-89.9-178.5-95.4c5.4,57.5,41,124,95.3,178.5
					s121,89.9,178.5,95.4C957.7,1912.7,922.1,1846.2,867.7,1791.6z"/>
				<path id="path1249" d="M989.7,1288c-0.4,0.5-0.9,1-1.3,1.5l-2,1.9l0.1,0.1c-57.3,63.5-20.9,195.9,82.2,299.1
					s235.6,139.4,299,82.2l0.1,0.2l2.3-2.3l1.1-0.9c0.4-0.5,0.9-1,1.3-1.5l510.9-510.9l-381.5-381.6l-511.3,511.3L989.7,1288
					L989.7,1288z"/>
				<path id="ellipse1251" d="M1801.3,858.1c105.4,105.4,140.8,240.9,79.1,302.6s-197.2,26.3-302.6-79.1s-140.8-240.9-79.1-302.6
					S1695.9,752.7,1801.3,858.1z"/>
				<path id="ellipse1253" d="M1788,871.4c92.9,92.9,124.1,212.2,69.7,266.6l0,0c-54.4,54.4-173.8,23.2-266.6-69.7l0,0
					c-92.9-92.9-124.1-212.2-69.7-266.6l0,0C1575.8,747.4,1695.1,778.6,1788,871.4L1788,871.4z"/>
				<path id="path1255" class="st0" d="M1496.5,853.7c-10,62.7,27.2,147.2,94.6,214.6s151.7,104.6,214.4,94.8
					c10-62.7-27.2-147.2-94.6-214.6S1559.2,843.9,1496.5,853.7z"/>
				<path id="path1257" class="st1" d="M1466,811.9l-2.2,2.2c0.8-0.7,1.5-1.3,2.3-2L1466,811.9z M1847.4,1193.3
					c-0.5,0.6-1.1,1.2-1.6,1.8l1.7-1.7L1847.4,1193.3z M1461.8,816l-471.1,471.1l-1.1,0.9l0,0c-0.4,0.5-0.9,1-1.3,1.5l-2,1.9
					l0.1,0.1c-57.3,63.5-20.9,195.9,82.2,299.1s235.6,139.4,299,82.2l0.1,0.2l2.3-2.3l1.1-0.9c0.4-0.5,0.9-1,1.3-1.5l470.2-470.2
					c-62.5,59.8-196.7,24-301.1-80.4C1437.1,1012.8,1401.3,878.3,1461.8,816L1461.8,816z"/>
				<path id="path1259" class="st2" d="M1328.7,949.2l-2.2,2.2c0.8-0.7,1.5-1.3,2.3-2L1328.7,949.2z M1710.1,1330.6
					c-0.5,0.6-1.1,1.2-1.6,1.8l1.7-1.7L1710.1,1330.6z M1324.5,953.3L1043,1234.8l0.1,0.2c-0.8,0.7-1.6,1.3-2.3,2l-2,2
					c-0.5,0.5-0.9,1-1.4,1.5l0,0c-0.4,0.5-0.9,1-1.4,1.5l0,0c-0.4,0.5-0.9,1-1.3,1.5l0,0c-4.8,5.6-8.9,11.8-12.3,18.4l0,0
					c-0.6,1.2-1.2,2.4-1.8,3.7c-1.7,3.7-3.3,7.5-4.5,11.4c-0.9,2.6-1.7,5.3-2.4,8c-0.7,2.7-1.3,5.5-1.8,8.3
					c-0.1,0.6-0.2,1.2-0.3,1.8c-0.9,5.2-1.5,10.5-1.8,15.7c-0.4,6.2-0.4,12.3,0,18.5l0,0c0,1.6,0.1,3.2,0.3,4.8l0,0l0.4,4.8l0,0
					c0.1,1.6,0.4,3.2,0.5,4.9l0,0c0.6,4.9,1.4,9.8,2.4,14.8l0,0c0.4,1.7,0.7,3.3,1.1,5l0,0c0.4,1.7,0.8,3.4,1.2,5.1
					c1.7,6.8,3.6,13.6,5.9,20.6l0,0c1.7,5.2,3.6,10.4,5.7,15.7l0,0c2.1,5.3,4.3,10.5,6.7,15.8c0.8,1.8,1.6,3.5,2.5,5.3l0,0
					c0.9,1.8,1.7,3.5,2.6,5.3c1.8,3.5,3.6,7.1,5.5,10.6c3.8,7.1,8,14.2,12.4,21.3l0,0c2.2,3.5,4.5,7.1,6.9,10.6
					c1.2,1.8,2.4,3.5,3.6,5.3c8.7,12.6,18.1,24.7,28.2,36.3c4.4,5.1,9,10.1,13.7,15.1c3.1,3.3,6.3,6.6,9.6,9.9
					c4.9,4.9,9.8,9.6,14.9,14.2c6.7,6.1,13.4,12,20.3,17.5c10.3,8.3,20.7,16.1,31.3,23.2c8.8,5.9,17.6,11.3,26.4,16.3
					c1.8,1,3.5,2,5.3,2.9c5.3,2.9,10.6,5.6,15.9,8.1c7.1,3.4,14.1,6.5,21.1,9.2c3.5,1.4,7,2.7,10.5,3.9c1.7,0.6,3.5,1.2,5.2,1.8
					c3.4,1.2,6.9,2.2,10.3,3.2c5.1,1.5,10.2,2.8,15.3,3.9s10,2.1,14.9,2.8c3.3,0.5,6.5,0.9,9.8,1.3c3.2,0.3,6.4,0.6,9.6,0.8
					c4.7,0.3,9.4,0.3,13.9,0.2c1.5,0,3-0.1,4.5-0.2c3-0.2,6-0.4,8.9-0.8c1.5-0.2,2.9-0.4,4.3-0.6c2.9-0.4,5.7-0.9,8.5-1.5
					c1.4-0.3,2.8-0.6,4.1-1l0,0c1.4-0.3,2.7-0.7,4.1-1.1l0,0c1.3-0.4,2.7-0.8,4-1.2l0,0c1.3-0.4,2.6-0.9,3.9-1.4
					c6.4-2.3,12.5-5.3,18.3-8.8c1.2-0.7,2.3-1.4,3.4-2.2l0,0c1.1-0.8,2.2-1.5,3.3-2.3c0.5-0.4,1.1-0.8,1.6-1.2s1-0.8,1.6-1.3
					l1.6-1.3c0.5-0.4,1-0.9,1.5-1.3l1.5-1.4c0.5-0.4,1-0.9,1.5-1.4l2.9-2.9c0.5-0.6,1.1-1.2,1.6-1.8l0.1,0.1l281.1-281.1
					c-62.5,59.8-196.7,24-301.1-80.4C1299.8,1150,1264.1,1015.5,1324.5,953.3L1324.5,953.3z M1235.5,1805.5l-2.4,2.4l1.1-0.9
					C1234.6,1806.5,1235,1806,1235.5,1805.5L1235.5,1805.5z M853.5,1424.4l-1.1,0.9l0,0c-0.4,0.5-0.9,1-1.3,1.5l-1.9,1.9l0,0
					L853.5,1424.4z"/>
				<path id="path1261" d="M1043,1234.8l-2.2,2.2c0.8-0.7,1.6-1.3,2.3-2L1043,1234.8z M1424.4,1616.3c-0.5,0.6-1.1,1.2-1.6,1.8
					l1.7-1.7L1424.4,1616.3z M1038.8,1239l-185.4,185.4l-4.3,4.3l0.1,0.1c-57.3,63.5-20.9,195.9,82.3,299.1s235.5,139.4,299,82.2
					l0.1,0.2l2.3-2.3l2.4-2.4l184.5-184.5c-62.5,59.8-196.7,24-301.1-80.4c-104.7-104.7-140.4-239.3-80-301.5L1038.8,1239z"/>
				<path id="path1263" class="st0" d="M1677,982.4c-55.6-55.5-123.6-91.3-181.7-95.7c4.4,58.1,40.3,126.1,95.7,181.7
					c55.5,55.6,123.6,91.3,181.7,95.7C1768.3,1105.9,1732.5,1037.9,1677,982.4L1677,982.4z"/>
				<g id="g1269">
					<path id="circle1265" d="M1342.3,1458.3c-39,39-102.2,39-141.2,0l0,0c-39-39-39-102.2,0-141.2c0,0,0,0,0,0l0,0
						c39-39,102.2-39,141.2,0l0,0C1381.3,1356.1,1381.3,1419.3,1342.3,1458.3C1342.3,1458.3,1342.3,1458.3,1342.3,1458.3z"/>
					<path id="circle1267" class="st0" d="M1343,1398.5c-10,10-26.1,10-36.1,0l0,0c-10-10-10-26.1,0-36.1c0,0,0,0,0,0l0,0
						c10-10,26.1-10,36.1,0l0,0C1353,1372.4,1353,1388.5,1343,1398.5C1343,1398.5,1343,1398.5,1343,1398.5z"/>
				</g>
				<path id="rect1271" d="M1748.1,1809.9l61.9-61.9l-230.4-230.4l-61.9,61.9L1748.1,1809.9z"/>
				<path id="rect1273" class="st0" d="M2315.5,2659.3l343.9-343.9l-682.6-682.6l-343.9,343.9L2315.5,2659.3z"/>
				<path id="rect1275" d="M1665.3,1979.1l313.8-313.8l647.9,647.8l-313.8,313.8L1665.3,1979.1z"/>
				<path id="rect1277" d="M849.4,911.3l61.9-61.9l230.4,230.4l-61.9,61.9L849.4,911.3z"/>
				<path id="rect1279" class="st0" d="M0,343.9L343.9,0l682.6,682.6l-343.9,343.9L0,343.9z"/>
				<path id="rect1281" d="M680.3,994l313.8-313.8L346.3,32.5L32.5,346.3L680.3,994z"/>
				<path id="path1342" class="st0" d="M641,479l-34.3,127.7L479,641l-93.5-93.5l34.2-127.7l127.7-34.2L641,479z"/>
				<path id="path1344" class="st0" d="M2273.9,2111.9l-34.2,127.7l-127.7,34.2l-93.5-93.5l34.2-127.7l127.7-34.2L2273.9,2111.9z"/>
			</g>
		</g>
	</g>
</g>
</svg>
