<svg xmlns="http://www.w3.org/2000/svg" viewBox="0 0 2659.43 2659.33"><defs><style>.cls-1{fill:#0062f7;}.cls-2{fill:#747474;}.cls-3{fill:#5d5d5d;}.cls-4{fill:#4e4e4e;}.cls-5{fill:#414141;}.cls-6{fill:#a8a8a8;}.cls-7,.cls-9{fill:#2a7fff;}.cls-7,.cls-8{fill-opacity:0.95;}.cls-8{fill:#f9f9f9;}.cls-10{fill:#85b6ff;}.cls-11{fill:#fff;}.cls-12{fill:#64a2ff;}.cls-13{fill:#adceff;}</style></defs><title>Zasób 1</title><g id="Warstwa_2" data-name="Warstwa 2"><g id="svg1356"><g id="layer1"><g id="g2261"><g id="satellite"><path id="path1239" class="cls-1" d="M1073.89,1967c61.7-61.7,26.3-197.13-79.06-302.49h0c-105.36-105.36-240.8-140.76-302.5-79.06h0q-1.28,1.39-2.51,2.83l-.07-.12-.43.68a99.11,99.11,0,0,0-20.1,34.08L455.1,1986.13l.07.09q-.75.62-1.48,1.26c-35.28,35.28-15,112.72,45.21,173h0c60.25,60.25,137.69,80.49,173,45.21h0q.65-.72,1.27-1.46v0l364.24-214.73a99.07,99.07,0,0,0,32.44-19.12l1.27-.75-.14-.18q1.48-1.19,2.9-2.44Z"/><path id="ellipse1241" class="cls-2" d="M994.82,1664.54c105.41,105.41,140.83,240.9,79.1,302.62s-197.22,26.31-302.63-79.09h0c-105.41-105.41-140.82-240.9-79.1-302.62h0C753.92,1523.72,889.41,1559.13,994.82,1664.54Z"/><path id="ellipse1243" class="cls-3" d="M981.52,1677.84c92.87,92.87,124.07,212.23,69.69,266.61s-173.75,23.18-266.62-69.68h0c-92.87-92.87-124.07-212.23-69.69-266.61h0C769.28,1553.77,888.66,1585,981.52,1677.84Z"/><path id="path1245" class="cls-4" d="M690,1660.15c-10,62.67,27.2,147.16,94.59,214.63S936.3,1979.42,999,1969.59c10-62.68-27.21-147.16-94.59-214.64S752.7,1650.32,690,1660.15Z"/><path id="path1247" class="cls-5" d="M867.74,1791.63c-54.5-54.39-121-89.93-178.51-95.38,5.42,57.48,41,124,95.35,178.53s121,89.93,178.51,95.38c-5.42-57.48-41-124-95.35-178.53Z"/><path id="path1249" class="cls-6" d="M989.68,1288q-.66.74-1.3,1.49l-2,1.94.14.12c-57.28,63.46-20.86,195.9,82.24,299.07s235.56,139.42,299,82.16l.14.2,2.35-2.34,1.09-.91q.67-.75,1.33-1.51l510.9-510.89L1502.06,775.77,990.73,1287.08l-1.08.9Z"/><path id="ellipse1251" class="cls-2" d="M1801.28,858.11c105.41,105.41,140.83,240.9,79.1,302.62s-197.22,26.31-302.63-79.09-140.83-240.9-79.1-302.62S1695.87,752.7,1801.28,858.11Z"/><path id="ellipse1253" class="cls-3" d="M1788,871.41c92.87,92.87,124.07,212.23,69.69,266.62h0c-54.38,54.38-173.75,23.18-266.62-69.68h0c-92.87-92.87-124.07-212.23-69.69-266.61h0c54.38-54.38,173.75-23.18,266.62,69.68Z"/><path id="path1255" class="cls-4" d="M1496.46,853.71c-10,62.68,27.21,147.16,94.59,214.64s151.71,104.63,214.41,94.81c10-62.68-27.21-147.16-94.59-214.64S1559.17,843.89,1496.46,853.71Z"/><path id="path1257" class="cls-7" d="M1466,811.86l-2.17,2.16q1.15-1,2.34-2Zm381.45,381.44q-.79.93-1.61,1.83l1.72-1.72ZM1461.85,816,990.76,1287.07l-1.09.9h0q-.66.74-1.3,1.49l-1.95,1.94.07.12c-57.28,63.46-20.86,195.9,82.24,299.07s235.56,139.42,299,82.16l.14.2,2.35-2.34,1.1-.91q.67-.75,1.33-1.51L1842.86,1198c-62.49,59.8-196.66,24-301.11-80.44-104.7-104.74-140.4-239.3-80-301.55Z"/><path id="path1259" class="cls-8" d="M1328.69,949.15l-2.15,2.16q1.15-1,2.33-2Zm381.46,381.44q-.79.93-1.61,1.83l1.72-1.72Zm-385.6-377.3L1043,1234.85l.14.18c-.78.65-1.58,1.3-2.35,2l-2,2c-.51.48-.93,1-1.38,1.48h0c-.43.5-.91,1-1.36,1.5h0c-.43.5-.88,1-1.34,1.52h0a96.7,96.7,0,0,0-12.31,18.39h0c-.58,1.2-1.22,2.42-1.8,3.65a106.45,106.45,0,0,0-4.55,11.45q-1.33,3.94-2.38,8c-.72,2.73-1.31,5.51-1.84,8.34a15.34,15.34,0,0,1-.29,1.78,142.83,142.83,0,0,0-1.82,15.74,157.63,157.63,0,0,0,0,18.5h0c0,1.58.14,3.17.29,4.76h0l.43,4.81h0c.14,1.61.36,3.23.51,4.86h0c.58,4.88,1.42,9.83,2.4,14.84h0c.36,1.67.72,3.34,1.06,5h0c.36,1.68.78,3.37,1.17,5.06q2.48,10.15,5.9,20.55h0q2.59,7.79,5.68,15.68h0q3.11,7.88,6.73,15.83c.78,1.77,1.63,3.53,2.48,5.3h0c.87,1.77,1.71,3.54,2.6,5.31q2.64,5.31,5.52,10.63,5.76,10.63,12.39,21.25h0q3.33,5.3,6.87,10.58,1.76,2.64,3.59,5.27a437.77,437.77,0,0,0,28.17,36.34q6.6,7.65,13.66,15.14,4.7,5,9.62,9.9,7.33,7.34,14.87,14.23,10,9.18,20.33,17.53c10.28,8.35,20.74,16.08,31.28,23.15q13.15,8.84,26.45,16.31,2.65,1.49,5.31,2.93,8,4.31,15.89,8.11,10.59,5.07,21.08,9.22,5.25,2.08,10.46,3.91c1.74.61,3.46,1.21,5.2,1.78,3.45,1.15,6.89,2.21,10.31,3.2q7.69,2.22,15.25,3.91t14.94,2.82q4.91.75,9.75,1.26t9.57.76q7.08.38,13.95.2c1.52,0,3-.11,4.53-.19,3-.17,6-.42,8.88-.76q2.19-.25,4.35-.57,4.31-.64,8.48-1.54,2.1-.45,4.13-1h0q2.05-.51,4.06-1.1h0c1.33-.39,2.67-.8,4-1.23h0c1.31-.43,2.61-.89,3.9-1.36a102.74,102.74,0,0,0,18.25-8.85c1.15-.7,2.27-1.43,3.37-2.18h0c1.12-.75,2.2-1.52,3.29-2.32.51-.4,1.07-.8,1.61-1.2s1-.83,1.56-1.25l1.56-1.28c.51-.43,1-.88,1.53-1.31l1.51-1.36c.51-.45,1-.91,1.47-1.39l2.87-2.87c.51-.6,1.07-1.21,1.61-1.83l.07.12,281.12-281.11c-62.49,59.8-196.66,24-301.11-80.45-104.7-104.74-140.4-239.3-80-301.54Zm-89.09,852.19-2.43,2.42,1.1-.91q.67-.75,1.33-1.51Zm-382-381.12-1.08.9h0q-.66.74-1.31,1.49l-1.94,1.94h0Z"/><path id="path1261" class="cls-9" d="M1043,1234.85l-2.16,2.16c.78-.67,1.55-1.33,2.34-2Zm381.45,381.44c-.51.62-1.08,1.21-1.6,1.83l1.72-1.72ZM1038.85,1239,853.46,1424.36l-4.33,4.34.07.12c-57.29,63.46-20.87,195.9,82.25,299.07s235.55,139.42,299,82.16l.14.2,2.35-2.34,2.41-2.42L1419.85,1621c-62.49,59.8-196.65,24-301.11-80.45-104.69-104.74-140.39-239.3-80-301.54Z"/><path id="path1263" class="cls-5" d="M1677,982.37c-55.56-55.47-123.55-91.28-181.69-95.69,4.43,58.13,40.25,126.11,95.72,181.67s123.55,91.28,181.68,95.69c-4.43-58.13-40.24-126.11-95.71-181.67Z"/><g id="g1269"><path id="circle1265" class="cls-9" d="M1342.33,1458.3a99.88,99.88,0,0,1-141.24,0h0a99.87,99.87,0,0,1,0-141.24h0a99.88,99.88,0,0,1,141.24,0h0a99.87,99.87,0,0,1,0,141.24Z"/><path id="circle1267" class="cls-10" d="M1343,1398.5a25.54,25.54,0,0,1-36.11,0h0a25.53,25.53,0,0,1,0-36.11h0a25.54,25.54,0,0,1,36.11,0h0a25.53,25.53,0,0,1,0,36.11Z"/></g><path id="rect1271" class="cls-11" d="M1748.09,1809.94,1810,1748l-230.41-230.41-61.9,61.9Z"/><path id="rect1273" class="cls-11" d="M2315.53,2659.33l343.9-343.89-682.64-682.62-343.9,343.89Z"/><path id="rect1275" class="cls-12" d="M1665.34,1979.08l313.81-313.8L2627,2313.08l-313.81,313.8Z"/><path id="rect1277" class="cls-11" d="M849.43,911.32l61.9-61.9,230.41,230.41-61.9,61.9Z"/><path id="rect1279" class="cls-11" d="M0,343.89,343.9,0l682.64,682.62-343.9,343.89Z"/><path id="rect1281" class="cls-12" d="M680.27,994l313.81-313.8L346.26,32.46,32.45,346.25Z"/><path id="path1342" class="cls-13" d="M641,479,606.74,606.74,479,641l-93.48-93.48,34.21-127.69,127.7-34.22Z"/><path id="path1344" class="cls-13" d="M2273.85,2111.88l-34.22,127.69-127.69,34.21-93.48-93.48,34.21-127.69,127.7-34.22Z"/></g></g></g></g></g></svg>