<svg xmlns="http://www.w3.org/2000/svg" viewBox="0 0 4096 4095.86"><defs><style>.cls-1{fill:#001028;}.cls-2{fill:#fff;}.cls-11,.cls-3{fill:#f9f9f9;}.cls-4{fill:#0062f7;}.cls-5{fill:#747474;}.cls-6{fill:#5d5d5d;}.cls-7{fill:#4e4e4e;}.cls-8{fill:#414141;}.cls-9{fill:#a8a8a8;}.cls-10,.cls-12{fill:#2a7fff;}.cls-10,.cls-11{fill-opacity:0.95;}.cls-13{fill:#85b6ff;}.cls-14{fill:#64a2ff;}.cls-15{fill:#adceff;}</style></defs><title>Zasób 3</title><g id="Warstwa_2" data-name="Warstwa 2"><g id="svg1356"><g id="layer1"><g id="g2261"><g id="background"><path id="ellipse1237" class="cls-1" d="M4058.19,2047.93C4058.19,3158.08,3158.2,4058,2048,4058h0c-1110.2,0-2010.19-900-2010.19-2010.12S937.81,37.81,2048,37.81s2010.19,900,2010.19,2010.12Z"/><path id="ellipse2187" class="cls-2" d="M2048,0A2047.95,2047.95,0,1,0,3496.16,599.82,2048.07,2048.07,0,0,0,2048,0Zm0,75.62A1972.35,1972.35,0,1,1,653.32,653.3,1972.38,1972.38,0,0,1,2048,75.62Z"/></g><g id="stars"><path id="path1318" class="cls-3" d="M3270.9,2384.78q.09,1.5.15,3,0-1.51.07-3Zm.15,3a119.93,119.93,0,0,1-119.93,119.93h0A119.93,119.93,0,0,1,3271,2627.65,119.93,119.93,0,0,1,3391,2507.72,119.93,119.93,0,0,1,3271,2387.79ZM3391,2507.72q1.51,0,3,.11v-.26q-1.51.09-3,.15ZM3271,2627.65q0,1.51-.07,3h.29q-.09-1.51-.14-3Zm-119.93-119.93q-1.51,0-3-.11v.26q1.51-.09,3-.15Z"/><path id="path1320" class="cls-3" d="M1648.12,3356q.09,1.5.14,3,0-1.51.07-3Zm.14,3A119.93,119.93,0,0,1,1528.33,3479h0a119.93,119.93,0,0,1,119.93,119.93A119.93,119.93,0,0,1,1768.19,3479a119.93,119.93,0,0,1-119.92-119.93ZM1768.19,3479q1.51,0,3,.11v-.26q-1.51.09-3,.15Zm-119.92,119.93q0,1.51-.07,3h.29q-.09-1.51-.14-3ZM1528.33,3479q-1.51,0-3-.11v.26q1.51-.09,3-.15Z"/><path id="path1322" class="cls-3" d="M1814,3237.6q0,1,.07,2,0-1,0-2Zm.07,2a79.49,79.49,0,0,1-79.49,79.49h0a79.49,79.49,0,0,1,79.49,79.49,79.49,79.49,0,0,1,79.48-79.49,79.49,79.49,0,0,1-79.48-79.49Zm79.48,79.49,2,.07V3319l-2,.1Zm-79.47,79.49q0,1,0,2h.14q0-1-.07-2Zm-79.48-79.49-2-.07v.17l2-.1Z"/><path id="path1324" class="cls-3" d="M1298.75,809.43q0,1,.07,2,0-1,0-2Zm.07,2a79.49,79.49,0,0,1-79.48,79.49,79.49,79.49,0,0,1,79.48,79.49,79.49,79.49,0,0,1,79.49-79.49,79.49,79.49,0,0,1-79.49-79.49h0Zm79.49,79.49,2,.07v-.17l-2,.1Zm-79.47,79.49q0,1,0,2h.14q0-1-.07-2Zm-79.49-79.49-2-.07V891l2-.1Z"/><path id="path1326" class="cls-3" d="M1760.65,756.13q.09,1.58.14,3.16,0-1.58.07-3.16Zm.14,3.16A125.71,125.71,0,0,1,1635.09,885h0a125.71,125.71,0,0,1,125.71,125.7h0A125.71,125.71,0,0,1,1886.49,885a125.71,125.71,0,0,1-125.7-125.7ZM1886.49,885q1.58,0,3.16.11v-.27Q1888.07,884.93,1886.49,885Zm-125.69,125.7q0,1.58-.07,3.16h.29q-.09-1.58-.14-3.16ZM1635.1,885q-1.58,0-3.16-.11v.27Q1633.52,885.05,1635.1,885Z"/><path id="path1328" class="cls-3" d="M2382.6,625.84q0,.92.07,1.85,0-.93,0-1.85Zm.07,1.85A73.71,73.71,0,0,1,2309,701.4a73.71,73.71,0,0,1,73.7,73.7,73.71,73.71,0,0,1,73.71-73.7h0a73.71,73.71,0,0,1-73.71-73.7Zm73.71,73.71,1.85.06v-.16l-1.85.09Zm-73.69,73.7q0,.93,0,1.85h.15q0-.93-.07-1.85ZM2309,701.4l-1.85-.06v.16l1.85-.09Z"/><path id="path1330" class="cls-3" d="M1600.82,1526q0,.92.07,1.85,0-.93,0-1.85Zm.07,1.85a73.71,73.71,0,0,1-73.7,73.71,73.71,73.71,0,0,1,73.7,73.7,73.71,73.71,0,0,1,73.71-73.7h0a73.71,73.71,0,0,1-73.71-73.7Zm73.71,73.71,1.85.06v-.16l-1.85.09Zm-73.7,73.7q0,.93,0,1.85h.14q0-.93-.07-1.85Zm-73.7-73.7-1.85-.06v.16l1.85-.09Z"/><path id="path1332" class="cls-3" d="M694.66,2136q0,.92.07,1.85,0-.92,0-1.85Zm.07,1.85A73.71,73.71,0,0,1,621,2211.6a73.71,73.71,0,0,1,73.7,73.7,73.71,73.71,0,0,1,73.71-73.7h0a73.71,73.71,0,0,1-73.71-73.7Zm73.71,73.71,1.85.06v-.16l-1.85.09Zm-73.7,73.7q0,.93,0,1.85h.14q0-.93-.07-1.85ZM621,2211.6l-1.85-.06v.16l1.85-.09Z"/><path id="path1334" class="cls-3" d="M2998.55,1016.72q0,.92.07,1.85,0-.93,0-1.85Zm.07,1.85a73.71,73.71,0,0,1-73.7,73.7,73.71,73.71,0,0,1,73.7,73.7,73.71,73.71,0,0,1,73.71-73.7h0a73.71,73.71,0,0,1-73.71-73.7Zm73.71,73.7,1.85.06v-.16l-1.85.09Zm-73.7,73.7q0,.93,0,1.85h.15q0-.93-.07-1.85Zm-73.7-73.7-1.86-.06v.16l1.86-.09Z"/></g><g id="satellite"><path id="path1239" class="cls-4" d="M1434.63,2949.84c61.7-61.7,26.3-197.13-79.06-302.49h0c-105.36-105.36-240.8-140.76-302.5-79.06h0q-1.28,1.39-2.51,2.83l-.07-.12-.43.68a99.11,99.11,0,0,0-20.1,34.08L815.84,2968.93l.07.09q-.75.62-1.48,1.26c-35.28,35.28-15,112.72,45.21,173h0c60.25,60.25,137.69,80.49,173,45.21h0q.65-.72,1.27-1.46v0l364.24-214.73a99.07,99.07,0,0,0,32.44-19.12l1.27-.75-.14-.18q1.48-1.19,2.9-2.44Z"/><path id="ellipse1241" class="cls-5" d="M1355.57,2647.34c105.41,105.41,140.83,240.9,79.1,302.62s-197.22,26.31-302.63-79.09h0c-105.41-105.41-140.82-240.9-79.1-302.62h0C1114.66,2506.52,1250.16,2541.93,1355.57,2647.34Z"/><path id="ellipse1243" class="cls-6" d="M1342.27,2660.64c92.87,92.87,124.07,212.23,69.69,266.61s-173.75,23.18-266.62-69.68h0c-92.87-92.87-124.07-212.23-69.69-266.61h0C1130,2536.57,1249.4,2567.77,1342.27,2660.64Z"/><path id="path1245" class="cls-7" d="M1050.74,2642.95c-10,62.67,27.2,147.16,94.59,214.63s151.72,104.64,214.43,94.81c10-62.68-27.21-147.16-94.59-214.64S1113.45,2633.12,1050.74,2642.95Z"/><path id="path1247" class="cls-8" d="M1228.48,2774.43C1174,2720,1107.46,2684.5,1050,2679c5.42,57.48,41,124,95.35,178.53s121,89.93,178.51,95.38c-5.42-57.48-41-124-95.35-178.53Z"/><path id="path1249" class="cls-9" d="M1350.42,2270.78q-.66.74-1.3,1.49l-2,1.94.14.12c-57.28,63.46-20.86,195.9,82.24,299.07s235.56,139.42,299,82.16l.14.2,2.35-2.34,1.09-.91q.67-.75,1.33-1.51l510.9-510.89L1862.8,1758.56l-511.33,511.31-1.08.9Z"/><path id="ellipse1251" class="cls-5" d="M2162,1840.91c105.41,105.41,140.83,240.9,79.1,302.62s-197.22,26.31-302.63-79.09-140.83-240.9-79.1-302.62S2056.61,1735.5,2162,1840.91Z"/><path id="ellipse1253" class="cls-6" d="M2148.73,1854.21c92.87,92.87,124.07,212.23,69.69,266.62h0c-54.38,54.38-173.75,23.18-266.62-69.68h0c-92.87-92.87-124.07-212.23-69.69-266.61h0c54.38-54.38,173.75-23.18,266.62,69.68Z"/><path id="path1255" class="cls-7" d="M1857.2,1836.51c-10,62.68,27.21,147.16,94.59,214.64s151.71,104.63,214.41,94.81c10-62.68-27.21-147.16-94.59-214.64S1919.91,1826.69,1857.2,1836.51Z"/><path id="path1257" class="cls-10" d="M1826.73,1794.66l-2.17,2.16q1.15-1,2.34-2Zm381.45,381.44q-.79.93-1.61,1.83l1.72-1.72Zm-385.59-377.3L1351.5,2269.87l-1.09.9h0q-.66.74-1.3,1.49l-1.95,1.94.07.12c-57.28,63.46-20.86,195.9,82.24,299.07s235.56,139.42,299,82.16l.14.2,2.35-2.34,1.1-.91q.67-.75,1.33-1.51l470.21-470.2c-62.49,59.8-196.66,24-301.11-80.44-104.7-104.74-140.4-239.3-80-301.55Z"/><path id="path1259" class="cls-11" d="M1689.43,1932l-2.15,2.16q1.15-1,2.33-2Zm381.46,381.44q-.79.93-1.61,1.83l1.72-1.72Zm-385.6-377.3-281.56,281.55.14.18c-.78.65-1.58,1.3-2.35,2l-2,2c-.51.48-.93,1-1.38,1.48h0c-.43.5-.91,1-1.36,1.5h0c-.43.5-.88,1-1.34,1.52h0a96.7,96.7,0,0,0-12.31,18.39h0c-.58,1.2-1.22,2.42-1.8,3.65a106.45,106.45,0,0,0-4.55,11.45q-1.33,3.94-2.38,8c-.72,2.73-1.31,5.51-1.84,8.34a15.34,15.34,0,0,1-.29,1.78,142.83,142.83,0,0,0-1.82,15.74,157.63,157.63,0,0,0,0,18.5h0c0,1.58.14,3.17.29,4.76h0l.43,4.81h0c.14,1.61.36,3.23.51,4.86h0c.58,4.88,1.42,9.83,2.4,14.84h0c.36,1.67.72,3.34,1.06,5h0c.36,1.68.78,3.37,1.17,5.06q2.48,10.15,5.9,20.55h0q2.59,7.79,5.68,15.68h0q3.11,7.88,6.73,15.83c.78,1.77,1.63,3.53,2.48,5.3h0c.87,1.77,1.71,3.54,2.6,5.31q2.64,5.31,5.52,10.63,5.76,10.63,12.39,21.25h0q3.33,5.3,6.87,10.58,1.76,2.64,3.59,5.27a437.77,437.77,0,0,0,28.17,36.34q6.6,7.65,13.66,15.14,4.7,5,9.62,9.9,7.33,7.34,14.87,14.23,10,9.18,20.33,17.53c10.28,8.35,20.74,16.08,31.28,23.15q13.15,8.84,26.45,16.31,2.65,1.49,5.31,2.93,8,4.31,15.89,8.11,10.59,5.07,21.08,9.22,5.25,2.08,10.46,3.91c1.74.61,3.46,1.21,5.2,1.78,3.45,1.15,6.89,2.21,10.31,3.2q7.69,2.22,15.25,3.91t14.94,2.82q4.91.75,9.75,1.26t9.57.76q7.08.38,13.95.2c1.52,0,3-.11,4.53-.19,3-.17,6-.42,8.88-.76q2.19-.25,4.35-.57,4.31-.64,8.48-1.54,2.1-.45,4.13-1h0q2.05-.51,4.06-1.1h0c1.33-.39,2.67-.8,4-1.23h0c1.31-.43,2.61-.89,3.9-1.36a102.74,102.74,0,0,0,18.25-8.85c1.15-.7,2.27-1.43,3.37-2.18h0c1.12-.75,2.2-1.52,3.29-2.32.51-.4,1.07-.8,1.61-1.2s1-.83,1.56-1.25l1.56-1.28c.51-.43,1-.88,1.53-1.31l1.51-1.36c.51-.45,1-.91,1.47-1.39l2.87-2.87c.51-.6,1.07-1.21,1.61-1.83l.07.12,281.12-281.11c-62.49,59.8-196.66,24-301.11-80.45-104.7-104.74-140.4-239.3-80-301.54Zm-89.09,852.19-2.43,2.42,1.1-.91q.67-.75,1.33-1.51Zm-382-381.12-1.08.9h0q-.66.74-1.31,1.49l-1.94,1.94h0Z"/><path id="path1261" class="cls-12" d="M1403.73,2217.64l-2.16,2.16c.78-.67,1.55-1.33,2.34-2Zm381.45,381.44c-.51.62-1.08,1.21-1.6,1.83l1.72-1.72Zm-385.59-377.3-185.38,185.37-4.33,4.34.07.12c-57.29,63.46-20.87,195.9,82.25,299.07s235.55,139.42,299,82.16l.14.2,2.35-2.34,2.41-2.42,184.51-184.5c-62.49,59.8-196.65,24-301.11-80.45-104.69-104.74-140.39-239.3-80-301.54Z"/><path id="path1263" class="cls-8" d="M2037.77,1965.17c-55.56-55.47-123.55-91.28-181.69-95.69,4.43,58.13,40.25,126.12,95.72,181.67s123.55,91.28,181.68,95.69c-4.43-58.13-40.24-126.11-95.71-181.67Z"/><g id="g1269"><path id="circle1265" class="cls-12" d="M1703.07,2441.09a99.88,99.88,0,0,1-141.24,0h0a99.87,99.87,0,0,1,0-141.24h0a99.88,99.88,0,0,1,141.24,0h0a99.87,99.87,0,0,1,0,141.24Z"/><path id="circle1267" class="cls-13" d="M1703.73,2381.3a25.54,25.54,0,0,1-36.11,0h0a25.53,25.53,0,0,1,0-36.11h0a25.54,25.54,0,0,1,36.11,0h0a25.53,25.53,0,0,1,0,36.11Z"/></g><path id="rect1271" class="cls-2" d="M2108.83,2792.74l61.9-61.9-230.41-230.41-61.9,61.9Z"/><path id="rect1273" class="cls-2" d="M2676.27,3642.13l343.9-343.89-682.64-682.62-343.9,343.89Z"/><path id="rect1275" class="cls-14" d="M2026.08,2961.88l313.81-313.8,647.82,647.79-313.81,313.8Z"/><path id="rect1277" class="cls-2" d="M1210.18,1894.11l61.9-61.9,230.41,230.41-61.9,61.9Z"/><path id="rect1279" class="cls-2" d="M360.74,1326.69,704.64,982.8l682.64,682.62-343.9,343.89Z"/><path id="rect1281" class="cls-14" d="M1041,1976.85l313.81-313.8L707,1015.26l-313.81,313.8Z"/><path id="path1342" class="cls-15" d="M1001.7,1461.85l-34.22,127.69-127.69,34.21-93.48-93.48,34.21-127.69,127.7-34.22Z"/><path id="path1344" class="cls-15" d="M2634.6,3094.68l-34.22,127.69-127.69,34.21-93.48-93.48,34.21-127.69,127.7-34.22Z"/></g><g id="text"><path id="path1283" class="cls-2" d="M2631.7,1634.35h95.77v-9.69h-85V1486.82H2631.7Z"/><path id="path1285" class="cls-2" d="M2815.06,1635.4c43.88,0,76.78-31.82,76.78-74.82s-32.9-74.82-76.78-74.82c-44.09,0-76.78,32-76.78,74.82S2771,1635.4,2815.06,1635.4Zm0-9.9c-37.76,0-66-27.61-66-64.91s28.26-64.91,66-64.91c37.55,0,65.82,27.61,65.82,64.91s-28.28,64.91-65.82,64.91Z"/><path id="path1288" class="cls-2" d="M2991.81,1635.4c43.88,0,76.78-31.82,76.78-74.82s-32.9-74.82-76.78-74.82c-44.09,0-76.78,32-76.78,74.82S2947.72,1635.4,2991.81,1635.4Zm0-9.9c-37.76,0-66-27.61-66-64.91s28.26-64.91,66-64.91c37.55,0,65.81,27.61,65.81,64.91S3029.35,1625.5,2991.81,1625.5Z"/><path id="path1290" class="cls-2" d="M3213.27,1634.35h13.08l-69.4-80.51,65-67h-13.08l-92.19,94.84v-94.84H3105.9v147.52h10.75v-38.78l33.12-33.93Z"/><path id="path1292" class="cls-2" d="M3458.79,1634.35l-.29-147.52h-8.86l-66,114-66-114h-9.07v147.52h10.54V1508.53l61.81,106.22h5.27l61.8-106.64.15,126.24Z"/><path id="path1294" class="cls-2" d="M3567.86,1635.4c36.71,0,59.27-21.5,59.27-63.65v-84.93h-10.76v84.51c0,36.88-17.51,54.16-48.3,54.16s-48.52-17.28-48.52-54.16v-84.51h-10.76v84.93c0,42.15,22.37,63.65,59.07,63.65Z"/><path id="path1296" class="cls-2" d="M3827.52,1634.35l-.15-147.52h-8.86l-66,114-66-114h-9.07v147.52h10.55V1508.53l61.8,106.22H3755l61.8-106.64.14,126.24Z"/><path id="path1300" class="cls-2" d="M2576.67,1697.57l-34.89,34.9V1845.1h49.78v-47.21h61.59v-37.51h-61.59v-25.29h70.24v-37.51Z"/><path id="path1302" class="cls-2" d="M2712.63,1697.57l-34.9,34.9V1845.1h116.44v-38.57h-66.66v-109Z"/><path id="path1304" class="cls-2" d="M2936.53,1697.57h-48.1l-30.38,51-30.17-51h-52.52l55.69,93.36v54.16h49.79v-53.53Z"/><path id="path1306" class="cls-2" d="M2978,1697.57l-34.9,34.9V1845.1h49.78V1697.57Z"/><path id="path1308" class="cls-2" d="M3113.83,1697.57v67l-56.12-67H3016.8V1845.1h48.52v-67l56.11,67h40.91V1697.57Z"/><path id="path1310" class="cls-2" d="M3284.2,1804.63a46.38,46.38,0,0,1-18.14,3.58c-21.3,0-35.23-14.75-35.23-36.88,0-22.76,13.92-36.88,35.87-36.88,13.08,0,23.84,5.48,33.11,16.23l31.85-28c-15-18.33-38.39-28.45-67.5-28.45-48.73,0-83.53,31.82-83.53,77.13s34.8,77.13,82.48,77.13c21.72,0,46.4-6.53,64.32-18.76v-62.38H3284.2Z"/><path id="path1312" class="cls-2" d="M3488.66,1848.47c28.89,0,51.68-10.54,66.24-29.5l-31.43-28c-8.65,11-19,17.28-32.27,17.28-20.67,0-34.59-14.33-34.59-36.88s13.92-36.88,34.59-36.88c13.29,0,23.62,6.32,32.27,17.28l31.43-28c-14.56-19-37.34-29.51-66.24-29.51-47.46,0-82.26,31.82-82.26,77.13s34.8,77.13,82.26,77.13Z"/><path id="path1314" class="cls-2" d="M3834.4,1697.57v67l-56.11-67h-40.93V1845.1h48.52v-67l56.1,67h40.93V1697.57Z"/><path id="path1316" class="cls-2" d="M2535.18,1892.68a9.48,9.48,0,0,0-4.24,1l-319.8,159.9a9.48,9.48,0,1,0,8,17.2l.5-.25,317.81-158.9H3884a9.48,9.48,0,1,0,.41-18.95H2535.18Z"/><path id="path1336" class="cls-2" d="M3563.91,1845.1h46.76l35.07-98.63,35.06,98.63h47.53l-59.61-147.52h-45.2Z"/><path id="path1338" class="cls-2" d="M3022.11,1588.39l-30.3-15.81-30.3,15.81,30.3-52.48Z"/><path id="path1340" class="cls-2" d="M2845.36,1588.39l-30.3-15.81-30.3,15.81,30.3-52.48Z"/></g></g></g></g></g></svg>