<?xml version="1.0" encoding="UTF-8" standalone="no"?>
<!-- Generator: Adobe Illustrator 21.1.0, SVG Export Plug-In . SVG Version: 6.00 Build 0)  -->

<svg
   version="1.1"
   x="0px"
   y="0px"
   viewBox="0 0 4096 4095.9"
   style="enable-background:new 0 0 4096 4095.9;"
   xml:space="preserve"
   id="svg151"
   sodipodi:docname="logo.svg"
   inkscape:version="1.1 (c68e22c387, 2021-05-23)"
   xmlns:inkscape="http://www.inkscape.org/namespaces/inkscape"
   xmlns:sodipodi="http://sodipodi.sourceforge.net/DTD/sodipodi-0.dtd"
   xmlns="http://www.w3.org/2000/svg"
   xmlns:svg="http://www.w3.org/2000/svg"><defs
   id="defs155" /><sodipodi:namedview
   id="namedview153"
   pagecolor="#ffffff"
   bordercolor="#666666"
   borderopacity="1.0"
   inkscape:pageshadow="2"
   inkscape:pageopacity="0.0"
   inkscape:pagecheckerboard="0"
   showgrid="false"
   inkscape:zoom="0.19995605"
   inkscape:cx="2047.95"
   inkscape:cy="2047.95"
   inkscape:window-width="1920"
   inkscape:window-height="1027"
   inkscape:window-x="-8"
   inkscape:window-y="-8"
   inkscape:window-maximized="1"
   inkscape:current-layer="svg151" />
<style
   type="text/css"
   id="style83">
	.st0{fill:#FFFFFF;}
	.st1{fill:#001028;}
	.st2{fill:#F9F9F9;}
	.st3{fill:#0062F7;}
	.st4{fill:#747474;}
	.st5{fill:#5D5D5D;}
	.st6{fill:#4E4E4E;}
	.st7{fill:#414141;}
	.st8{fill:#A8A8A8;}
	.st9{fill:#2A7FFF;fill-opacity:0.95;}
	.st10{fill:#F9F9F9;fill-opacity:0.95;}
	.st11{fill:#2A7FFF;}
	.st12{fill:#85B6FF;}
	.st13{fill:#64A2FF;}
	.st14{fill:#ADCEFF;}
</style>

<g
   id="Warstwa_1">
	<g
   id="Warstwa_2">
		<g
   id="svg1356">
			<g
   id="layer1">
				<g
   id="g2261">
					<g
   id="background">
						<path
   id="ellipse1237"
   class="st1"
   d="M4058.2,2047.9c0,1110.2-900,2010.1-2010.2,2010.1l0,0        C937.8,4058,37.8,3158,37.8,2047.9S937.8,37.8,2048,37.8S4058.2,937.8,4058.2,2047.9z" />
						<path
   id="ellipse2187"
   class="st0"
   d="M2048,0C916.9,0,0.1,916.9,0.1,2048s916.9,2047.9,2048,2047.9S4096,3179,4096,2047.9        c0-543.1-215.8-1064-599.8-1448.1C3112.1,215.8,2591.2,0,2048,0z M2048,75.6c1089.3,0,1972.3,883.1,1972.3,1972.4        c0,1089.3-883.1,1972.3-1972.4,1972.3c-1089.3,0-1972.3-883.1-1972.3-1972.4c0-523.1,207.8-1024.8,577.7-1394.6        C1023.2,283.4,1524.9,75.6,2048,75.6z" />
					</g>
					<g
   id="stars">
						<path
   id="path1318"
   class="st2"
   d="M3270.9,2384.8c0.1,1,0.1,2,0.1,3c0-1,0-2,0.1-3H3270.9z M3271,2387.8        c0,66.2-53.7,119.9-119.9,119.9l0,0c66.2,0,119.9,53.7,119.9,119.9c0-66.2,53.7-119.9,119.9-119.9c0,0,0,0,0.1,0        C3324.8,2507.8,3271,2454.1,3271,2387.8C3271,2387.8,3271,2387.8,3271,2387.8L3271,2387.8z M3391,2507.7c1,0,2,0,3,0.1v-0.3        C3393,2507.6,3392,2507.7,3391,2507.7z M3271,2627.6c0,1,0,2-0.1,3h0.3C3271.2,2629.6,3271.1,2628.6,3271,2627.6L3271,2627.6z         M3151.1,2507.7c-1,0-2,0-3-0.1v0.3C3149.1,2507.8,3150.1,2507.8,3151.1,2507.7z" />
						<path
   id="path1320"
   class="st2"
   d="M1648.1,3356c0.1,1,0.1,2,0.1,3c0-1,0-2,0.1-3H1648.1z M1648.3,3359        c0,66.2-53.6,120-119.9,120c0,0,0,0-0.1,0l0,0c66.2,0,119.9,53.7,119.9,119.9c0-66.2,53.7-119.9,119.9-119.9        C1702,3479,1648.3,3425.3,1648.3,3359L1648.3,3359z M1768.2,3479c1,0,2,0,3,0.1v-0.3C1770.2,3478.9,1769.2,3479,1768.2,3479z         M1648.3,3598.9c0,1,0,2-0.1,3h0.3C1648.4,3600.9,1648.4,3599.9,1648.3,3598.9L1648.3,3598.9z M1528.3,3479c-1,0-2,0-3-0.1        v0.3C1526.3,3479.1,1527.3,3479,1528.3,3479z" />
						<path
   id="path1322"
   class="st2"
   d="M1814,3237.6c0,0.7,0,1.3,0.1,2C1814.1,3238.9,1814.1,3238.3,1814,3237.6L1814,3237.6z         M1814.1,3239.6c0,43.9-35.6,79.5-79.5,79.5l0,0c43.9,0,79.5,35.6,79.5,79.5c0-43.9,35.6-79.5,79.5-79.5        C1849.7,3319.1,1814.1,3283.5,1814.1,3239.6z M1893.5,3319.1l2,0.1v-0.2L1893.5,3319.1L1893.5,3319.1z M1814.1,3398.6        c0,0.7,0,1.3,0,2h0.1C1814.2,3399.9,1814.2,3399.2,1814.1,3398.6L1814.1,3398.6z M1734.6,3319.1l-2-0.1v0.2L1734.6,3319.1        L1734.6,3319.1z" />
						<path
   id="path1324"
   class="st2"
   d="M1298.8,809.4c0,0.7,0,1.3,0.1,2C1298.8,810.8,1298.8,810.1,1298.8,809.4L1298.8,809.4z         M1298.8,811.4c0,43.9-35.6,79.5-79.5,79.5c43.9,0,79.5,35.6,79.5,79.5c0-43.9,35.6-79.5,79.5-79.5        C1334.4,890.9,1298.8,855.3,1298.8,811.4L1298.8,811.4z M1378.3,890.9l2,0.1v-0.2L1378.3,890.9z M1298.8,970.4        c0,0.7,0,1.3,0,2h0.1C1299,971.7,1299,971.1,1298.8,970.4L1298.8,970.4z M1219.3,890.9l-2-0.1v0.2L1219.3,890.9L1219.3,890.9z        " />
						<path
   id="path1326"
   class="st2"
   d="M1760.7,756.1c0.1,1.1,0.1,2.1,0.1,3.2c0-1.1,0-2.1,0.1-3.2H1760.7z M1760.8,759.3        c0,69.4-56.3,125.7-125.7,125.7l0,0c69.4,0,125.7,56.3,125.7,125.7l0,0c0-69.4,56.3-125.7,125.7-125.7        C1817.1,885,1760.8,828.7,1760.8,759.3L1760.8,759.3z M1886.5,885c1.1,0,2.1,0,3.2,0.1v-0.3        C1888.6,884.9,1887.5,885,1886.5,885z M1760.8,1010.7c0,1.1,0,2.1-0.1,3.2h0.3C1761,1012.8,1760.9,1011.8,1760.8,1010.7        L1760.8,1010.7z M1635.1,885c-1.1,0-2.1,0-3.2-0.1v0.3C1633,885.1,1634,885,1635.1,885z" />
						<path
   id="path1328"
   class="st2"
   d="M2382.6,625.8c0,0.6,0,1.2,0.1,1.8C2382.7,627.1,2382.7,626.5,2382.6,625.8L2382.6,625.8z         M2382.7,627.7c0,40.7-33,73.7-73.7,73.7c40.7,0,73.7,33,73.7,73.7c0-40.7,33-73.7,73.7-73.7l0,0        C2415.7,701.4,2382.7,668.4,2382.7,627.7L2382.7,627.7z M2456.4,701.4l1.9,0.1v-0.2L2456.4,701.4L2456.4,701.4z M2382.7,775.1        c0,0.6,0,1.2,0,1.8h0.1C2382.8,776.3,2382.8,775.7,2382.7,775.1L2382.7,775.1z M2309,701.4l-1.9-0.1v0.2L2309,701.4        L2309,701.4z" />
						<path
   id="path1330"
   class="st2"
   d="M1600.8,1526c0,0.6,0,1.2,0.1,1.8C1600.9,1527.2,1600.9,1526.6,1600.8,1526L1600.8,1526z         M1600.9,1527.8c0,40.7-33,73.7-73.7,73.7c40.7,0,73.7,33,73.7,73.7c0-40.7,33-73.7,73.7-73.7l0,0        C1633.9,1601.6,1600.9,1568.6,1600.9,1527.8L1600.9,1527.8z M1674.6,1601.6l1.8,0.1v-0.2L1674.6,1601.6L1674.6,1601.6z         M1600.9,1675.3c0,0.6,0,1.2,0,1.8h0.1C1601,1676.5,1601,1675.9,1600.9,1675.3L1600.9,1675.3z M1527.2,1601.6l-1.8-0.1v0.2        L1527.2,1601.6L1527.2,1601.6z" />
						<path
   id="path1332"
   class="st2"
   d="M694.7,2136c0,0.6,0,1.2,0.1,1.9C694.7,2137.2,694.7,2136.6,694.7,2136L694.7,2136z         M694.7,2137.9c0,40.7-33,73.7-73.7,73.8c0,0,0,0-0.1,0c40.7,0,73.7,33,73.7,73.7c0-40.7,33-73.7,73.7-73.7l0,0        C727.7,2211.6,694.7,2178.6,694.7,2137.9L694.7,2137.9z M768.4,2211.6l1.8,0.1v-0.2L768.4,2211.6L768.4,2211.6z M694.7,2285.3        c0,0.6,0,1.2,0,1.9h0.1C694.9,2286.5,694.9,2285.9,694.7,2285.3L694.7,2285.3z M621,2211.6l-1.8-0.1v0.2L621,2211.6        L621,2211.6z" />
						<path
   id="path1334"
   class="st2"
   d="M2998.6,1016.7c0,0.6,0,1.2,0.1,1.8C2998.6,1017.9,2998.6,1017.3,2998.6,1016.7        L2998.6,1016.7z M2998.6,1018.6c0,40.7-33,73.7-73.7,73.7c40.7,0,73.7,33,73.7,73.7c0-40.7,33-73.7,73.7-73.7l0,0        C3031.6,1092.3,2998.6,1059.3,2998.6,1018.6L2998.6,1018.6z M3072.3,1092.3l1.9,0.1v-0.2L3072.3,1092.3L3072.3,1092.3z         M2998.6,1166c0,0.6,0,1.2,0,1.8h0.1C2998.8,1167.2,2998.8,1166.6,2998.6,1166L2998.6,1166z M2924.9,1092.3l-1.9-0.1v0.2        L2924.9,1092.3L2924.9,1092.3z" />
					</g>
					<g
   id="satellite">
						<path
   id="path1239"
   class="st3"
   d="M1434.6,2949.8c61.7-61.7,26.3-197.1-79.1-302.5l0,0c-105.4-105.4-240.8-140.8-302.5-79.1        l0,0c-0.9,0.9-1.7,1.9-2.5,2.8l-0.1-0.1l-0.4,0.7c-8.9,9.9-15.8,21.5-20.1,34.1l-214.1,363.2l0.1,0.1c-0.5,0.4-1,0.8-1.5,1.3        c-35.3,35.3-15,112.7,45.2,173l0,0c60.3,60.3,137.7,80.5,173,45.2l0,0c0.4-0.5,0.9-1,1.3-1.5l0,0l364.2-214.7        c11.9-4.2,22.9-10.7,32.4-19.1l1.3-0.8l-0.1-0.2C1432.7,2951.5,1433.7,2950.6,1434.6,2949.8L1434.6,2949.8z" />
						<path
   id="ellipse1241"
   class="st4"
   d="M1355.6,2647.3c105.4,105.4,140.8,240.9,79.1,302.6s-197.2,26.3-302.6-79.1l0,0        c-105.4-105.4-140.8-240.9-79.1-302.6l0,0C1114.7,2506.5,1250.2,2541.9,1355.6,2647.3z" />
						<path
   id="ellipse1243"
   class="st5"
   d="M1342.3,2660.6c92.9,92.9,124.1,212.2,69.7,266.6s-173.8,23.2-266.6-69.7l0,0        c-92.9-92.9-124.1-212.2-69.7-266.6l0,0C1130,2536.6,1249.4,2567.8,1342.3,2660.6z" />
						<path
   id="path1245"
   class="st6"
   d="M1050.7,2642.9c-10,62.7,27.2,147.2,94.6,214.6s151.7,104.6,214.4,94.8        c10-62.7-27.2-147.2-94.6-214.6S1113.4,2633.1,1050.7,2642.9z" />
						<path
   id="path1247"
   class="st7"
   d="M1228.5,2774.4c-54.5-54.4-121-89.9-178.5-95.4c5.4,57.5,41,124,95.3,178.5        s121,89.9,178.5,95.4C1318.4,2895.4,1282.9,2828.9,1228.5,2774.4L1228.5,2774.4z" />
						<path
   id="path1249"
   class="st8"
   d="M1350.4,2270.8c-0.4,0.5-0.9,1-1.3,1.5l-2,1.9l0.1,0.1c-57.3,63.5-20.9,195.9,82.2,299.1        s235.6,139.4,299,82.2l0.1,0.2l2.3-2.3l1.1-0.9c0.4-0.5,0.9-1,1.3-1.5l510.9-510.9l-381.5-381.5l-511.3,511.3L1350.4,2270.8        L1350.4,2270.8z" />
						<path
   id="ellipse1251"
   class="st4"
   d="M2162,1840.9c105.4,105.4,140.8,240.9,79.1,302.6s-197.2,26.3-302.6-79.1        s-140.8-240.9-79.1-302.6S2056.6,1735.5,2162,1840.9z" />
						<path
   id="ellipse1253"
   class="st5"
   d="M2148.7,1854.2c92.9,92.9,124.1,212.2,69.7,266.6l0,0c-54.4,54.4-173.8,23.2-266.6-69.7        l0,0c-92.9-92.9-124.1-212.2-69.7-266.6l0,0C1936.5,1730.2,2055.9,1761.4,2148.7,1854.2L2148.7,1854.2z" />
						<path
   id="path1255"
   class="st6"
   d="M1857.2,1836.5c-10,62.7,27.2,147.2,94.6,214.6c67.4,67.5,151.7,104.6,214.4,94.8        c10-62.7-27.2-147.2-94.6-214.6S1919.9,1826.7,1857.2,1836.5z" />
						<path
   id="path1257"
   class="st9"
   d="M1826.7,1794.7l-2.2,2.2c0.8-0.7,1.5-1.3,2.3-2L1826.7,1794.7z M2208.2,2176.1        c-0.5,0.6-1.1,1.2-1.6,1.8l1.7-1.7L2208.2,2176.1z M1822.6,1798.8l-471.1,471.1l-1.1,0.9l0,0c-0.4,0.5-0.9,1-1.3,1.5l-1.9,1.9        l0.1,0.1c-57.3,63.5-20.9,195.9,82.2,299.1s235.6,139.4,299,82.2l0.1,0.2l2.3-2.3l1.1-0.9c0.4-0.5,0.9-1,1.3-1.5l470.2-470.2        c-62.5,59.8-196.7,24-301.1-80.4c-104.7-104.7-140.4-239.3-80-301.6H1822.6z" />
						<path
   id="path1259"
   class="st10"
   d="M1689.4,1932l-2.2,2.2c0.8-0.7,1.5-1.3,2.3-2L1689.4,1932z M2070.9,2313.4        c-0.5,0.6-1.1,1.2-1.6,1.8l1.7-1.7L2070.9,2313.4z M1685.3,1936.1l-281.6,281.6l0.1,0.2c-0.8,0.6-1.6,1.3-2.3,2l-2,2        c-0.5,0.5-0.9,1-1.4,1.5l0,0c-0.4,0.5-0.9,1-1.4,1.5l0,0c-0.4,0.5-0.9,1-1.3,1.5l0,0c-4.8,5.6-8.9,11.8-12.3,18.4l0,0        c-0.6,1.2-1.2,2.4-1.8,3.6c-1.7,3.7-3.3,7.5-4.6,11.4c-0.9,2.6-1.7,5.3-2.4,8c-0.7,2.7-1.3,5.5-1.8,8.3        c-0.1,0.6-0.2,1.2-0.3,1.8c-0.9,5.2-1.5,10.5-1.8,15.7c-0.4,6.2-0.4,12.3,0,18.5l0,0c0,1.6,0.1,3.2,0.3,4.8l0,0l0.4,4.8l0,0        c0.1,1.6,0.4,3.2,0.5,4.9l0,0c0.6,4.9,1.4,9.8,2.4,14.8l0,0c0.4,1.7,0.7,3.3,1.1,5l0,0c0.4,1.7,0.8,3.4,1.2,5.1        c1.7,6.8,3.6,13.6,5.9,20.6l0,0c1.7,5.2,3.6,10.4,5.7,15.7l0,0c2.1,5.3,4.3,10.5,6.7,15.8c0.8,1.8,1.6,3.5,2.5,5.3l0,0        c0.9,1.8,1.7,3.5,2.6,5.3c1.8,3.5,3.6,7.1,5.5,10.6c3.8,7.1,8,14.2,12.4,21.3l0,0c2.2,3.5,4.5,7.1,6.9,10.6        c1.2,1.8,2.4,3.5,3.6,5.3c8.7,12.6,18.1,24.7,28.2,36.3c4.4,5.1,9,10.1,13.7,15.1c3.1,3.3,6.3,6.6,9.6,9.9        c4.9,4.9,9.8,9.6,14.9,14.2c6.7,6.1,13.4,12,20.3,17.5c10.3,8.4,20.7,16.1,31.3,23.1c8.8,5.9,17.6,11.3,26.4,16.3        c1.8,1,3.5,2,5.3,2.9c5.3,2.9,10.6,5.6,15.9,8.1c7.1,3.4,14.1,6.5,21.1,9.2c3.5,1.4,7,2.7,10.5,3.9c1.7,0.6,3.5,1.2,5.2,1.8        c3.4,1.1,6.9,2.2,10.3,3.2c5.1,1.5,10.2,2.8,15.3,3.9c5,1.1,10,2.1,14.9,2.8c3.3,0.5,6.5,0.9,9.8,1.3s6.4,0.6,9.6,0.8        c4.7,0.3,9.4,0.3,13.9,0.2c1.5,0,3-0.1,4.5-0.2c3-0.2,6-0.4,8.9-0.8c1.5-0.2,2.9-0.4,4.3-0.6c2.9-0.4,5.7-0.9,8.5-1.5        c1.4-0.3,2.8-0.6,4.1-1l0,0c1.4-0.3,2.7-0.7,4.1-1.1l0,0c1.3-0.4,2.7-0.8,4-1.2l0,0c1.3-0.4,2.6-0.9,3.9-1.4        c6.4-2.3,12.5-5.3,18.3-8.9c1.2-0.7,2.3-1.4,3.4-2.2l0,0c1.1-0.8,2.2-1.5,3.3-2.3c0.5-0.4,1.1-0.8,1.6-1.2s1-0.8,1.6-1.3        l1.6-1.3c0.5-0.4,1-0.9,1.5-1.3l1.5-1.4c0.5-0.4,1-0.9,1.5-1.4l2.9-2.9c0.5-0.6,1.1-1.2,1.6-1.8l0.1,0.1l281.1-281.1        c-62.5,59.8-196.7,24-301.1-80.4C1660.5,2132.9,1624.8,1998.3,1685.3,1936.1L1685.3,1936.1z M1596.2,2788.3l-2.4,2.4l1.1-0.9        C1595.3,2789.3,1595.8,2788.8,1596.2,2788.3L1596.2,2788.3z M1214.2,2407.2l-1.1,0.9l0,0c-0.4,0.5-0.9,1-1.3,1.5l-1.9,1.9l0,0        L1214.2,2407.2z" />
						<path
   id="path1261"
   class="st11"
   d="M1403.7,2217.6l-2.2,2.2c0.8-0.7,1.6-1.3,2.3-2L1403.7,2217.6z M1785.2,2599.1        c-0.5,0.6-1.1,1.2-1.6,1.8l1.7-1.7L1785.2,2599.1z M1399.6,2221.8l-185.4,185.4l-4.3,4.3l0.1,0.1        c-57.3,63.5-20.9,195.9,82.3,299.1s235.6,139.4,299,82.2l0.1,0.2l2.3-2.3l2.4-2.4l184.5-184.5c-62.5,59.8-196.7,24-301.1-80.4        C1374.8,2418.6,1339.1,2284,1399.6,2221.8L1399.6,2221.8z" />
						<path
   id="path1263"
   class="st7"
   d="M2037.8,1965.2c-55.6-55.5-123.6-91.3-181.7-95.7c4.4,58.1,40.3,126.1,95.7,181.7        c55.5,55.5,123.6,91.3,181.7,95.7C2129.1,2088.7,2093.2,2020.7,2037.8,1965.2L2037.8,1965.2z" />
						<g
   id="g1269">
							<path
   id="circle1265"
   class="st11"
   d="M1703.1,2441.1c-39,39-102.2,39-141.2,0l0,0c-39-39-39-102.2,0-141.2c0,0,0,0,0,0l0,0         c39-39,102.2-39,141.2,0l0,0C1742.1,2338.9,1742.1,2402.1,1703.1,2441.1C1703.1,2441.1,1703.1,2441.1,1703.1,2441.1z" />
							<path
   id="circle1267"
   class="st12"
   d="M1703.7,2381.3c-10,10-26.1,10-36.1,0l0,0c-10-10-10-26.1,0-36.1c0,0,0,0,0,0l0,0         c10-10,26.1-10,36.1,0l0,0C1713.7,2355.2,1713.7,2371.3,1703.7,2381.3C1703.7,2381.3,1703.7,2381.3,1703.7,2381.3z" />
						</g>
						<path
   id="rect1271"
   class="st0"
   d="M2108.8,2792.7l61.9-61.9l-230.4-230.4l-61.9,61.9L2108.8,2792.7z" />
						<path
   id="rect1273"
   class="st0"
   d="M2676.3,3642.1l343.9-343.9l-682.6-682.6l-343.9,343.9L2676.3,3642.1z" />
						<path
   id="rect1275"
   class="st13"
   d="M2026.1,2961.9l313.8-313.8l647.8,647.8l-313.8,313.8L2026.1,2961.9z" />
						<path
   id="rect1277"
   class="st0"
   d="M1210.2,1894.1l61.9-61.9l230.4,230.4l-61.9,61.9L1210.2,1894.1z" />
						<path
   id="rect1279"
   class="st0"
   d="M360.7,1326.7l343.9-343.9l682.6,682.6l-343.9,343.9L360.7,1326.7z" />
						<path
   id="rect1281"
   class="st13"
   d="M1041,1976.8l313.8-313.8L707,1015.3l-313.8,313.8L1041,1976.8z" />
						<path
   id="path1342"
   class="st14"
   d="M1001.7,1461.8l-34.2,127.7l-127.7,34.2l-93.5-93.5l34.2-127.7l127.7-34.2L1001.7,1461.8z        " />
						<path
   id="path1344"
   class="st14"
   d="M2634.6,3094.7l-34.2,127.7l-127.7,34.2l-93.5-93.5l34.2-127.7l127.7-34.2L2634.6,3094.7z        " />
					</g>
					<g
   id="text">
						<path
   id="path1283"
   class="st0"
   d="M2631.7,1634.3h95.8v-9.7h-85v-137.8h-10.8V1634.3z" />
						<path
   id="path1285"
   class="st0"
   d="M2815.1,1635.4c43.9,0,76.8-31.8,76.8-74.8s-32.9-74.8-76.8-74.8        c-44.1,0-76.8,32-76.8,74.8S2771,1635.4,2815.1,1635.4z M2815.1,1625.5c-37.8,0-66-27.6-66-64.9s28.3-64.9,66-64.9        c37.6,0,65.8,27.6,65.8,64.9S2852.6,1625.5,2815.1,1625.5z" />
						<path
   id="path1288"
   class="st0"
   d="M2991.8,1635.4c43.9,0,76.8-31.8,76.8-74.8s-32.9-74.8-76.8-74.8        c-44.1,0-76.8,32-76.8,74.8S2947.7,1635.4,2991.8,1635.4z M2991.8,1625.5c-37.8,0-66-27.6-66-64.9s28.3-64.9,66-64.9        c37.6,0,65.8,27.6,65.8,64.9S3029.4,1625.5,2991.8,1625.5z" />
						<path
   id="path1290"
   class="st0"
   d="M3213.3,1634.3h13.1l-69.4-80.5l65-67h-13.1l-92.2,94.8v-94.8h-10.8v147.5h10.8v-38.8        l33.1-33.9L3213.3,1634.3z" />
						<path
   id="path1292"
   class="st0"
   d="M3458.8,1634.3l-0.3-147.5h-8.9l-66,114l-66-114h-9.1v147.5h10.5v-125.8l61.8,106.2h5.3        l61.8-106.6l0.1,126.2H3458.8z" />
						<path
   id="path1294"
   class="st0"
   d="M3567.9,1635.4c36.7,0,59.3-21.5,59.3-63.7v-84.9h-10.8v84.5c0,36.9-17.5,54.2-48.3,54.2        s-48.5-17.3-48.5-54.2v-84.5h-10.8v84.9C3508.8,1613.9,3531.2,1635.4,3567.9,1635.4z" />
						<path
   id="path1296"
   class="st0"
   d="M3827.5,1634.3l-0.1-147.5h-8.9l-66,114l-66-114h-9.1v147.5h10.6v-125.8l61.8,106.2h5.2        l61.8-106.6l0.1,126.2H3827.5z" />
						<path
   id="path1300"
   class="st0"
   d="M2576.7,1697.6l-34.9,34.9v112.6h49.8v-47.2h61.6v-37.5h-61.6v-25.3h70.2v-37.5        L2576.7,1697.6z" />
						<path
   id="path1302"
   class="st0"
   d="M2712.6,1697.6l-34.9,34.9v112.6h116.4v-38.6h-66.7v-109L2712.6,1697.6z" />
						<path
   id="path1304"
   class="st0"
   d="M2936.5,1697.6h-48.1l-30.4,51l-30.2-51h-52.5l55.7,93.4v54.2h49.8v-53.5L2936.5,1697.6z" />
						<path
   id="path1306"
   class="st0"
   d="M2978,1697.6l-34.9,34.9v112.6h49.8v-147.5H2978z" />
						<path
   id="path1308"
   class="st0"
   d="M3113.8,1697.6v67l-56.1-67h-40.9v147.5h48.5v-67l56.1,67h40.9v-147.5H3113.8z" />
						<path
   id="path1310"
   class="st0"
   d="M3284.2,1804.6c-5.7,2.4-11.9,3.6-18.1,3.6c-21.3,0-35.2-14.8-35.2-36.9        c0-22.8,13.9-36.9,35.9-36.9c13.1,0,23.8,5.5,33.1,16.2l31.9-28c-15-18.3-38.4-28.4-67.5-28.4c-48.7,0-83.5,31.8-83.5,77.1        s34.8,77.1,82.5,77.1c21.7,0,46.4-6.5,64.3-18.8v-62.4h-43.2V1804.6z" />
						<path
   id="path1312"
   class="st0"
   d="M3488.7,1848.5c28.9,0,51.7-10.5,66.2-29.5l-31.4-28c-8.6,11-19,17.3-32.3,17.3        c-20.7,0-34.6-14.3-34.6-36.9s13.9-36.9,34.6-36.9c13.3,0,23.6,6.3,32.3,17.3l31.4-28c-14.6-19-37.3-29.5-66.2-29.5        c-47.5,0-82.3,31.8-82.3,77.1S3441.2,1848.5,3488.7,1848.5L3488.7,1848.5z" />
						<path
   id="path1314"
   class="st0"
   d="M3834.4,1697.6v67l-56.1-67h-40.9v147.5h48.5v-67l56.1,67h40.9v-147.5H3834.4z" />
						<path
   id="path1316"
   class="st0"
   d="M2535.2,1892.7c-1.5,0-2.9,0.3-4.2,1l-319.8,159.9c-4.7,2.2-6.8,7.9-4.6,12.6        c2.2,4.7,7.9,6.8,12.6,4.6l0.5-0.3l317.8-158.9H3884c5.2,0.2,9.7-3.8,9.9-9c0.2-5.2-3.8-9.7-9-9.9c-0.2,0-0.3,0-0.5,0H2535.2z        " />
						<path
   id="path1336"
   class="st0"
   d="M3563.9,1845.1h46.8l35.1-98.6l35.1,98.6h47.5l-59.6-147.5h-45.2L3563.9,1845.1z" />
						<path
   id="path1338"
   class="st0"
   d="M3022.1,1588.4l-30.3-15.8l-30.3,15.8l30.3-52.5L3022.1,1588.4z" />
						<path
   id="path1340"
   class="st0"
   d="M2845.4,1588.4l-30.3-15.8l-30.3,15.8l30.3-52.5L2845.4,1588.4z" />
					</g>
				</g>
			</g>
		</g>
	</g>
</g>
</svg>
