<svg xmlns="http://www.w3.org/2000/svg" viewBox="0 0 151.1 151.11"><defs><style>.cls-1{fill:#f9f9f9;}</style></defs><title>Zasób 2</title><g id="Warstwa_2" data-name="Warstwa 2"><g id="svg1356"><g id="layer1"><g id="g2261"><g id="stars"><path id="path1328" class="cls-1" d="M75.47,0q0,.92.07,1.85,0-.93,0-1.85Zm.07,1.85A73.71,73.71,0,0,1,1.84,75.56a73.71,73.71,0,0,1,73.7,73.7,73.71,73.71,0,0,1,73.71-73.7h0A73.71,73.71,0,0,1,75.54,1.85Zm73.71,73.71,1.85.06v-.16l-1.85.09Zm-73.69,73.7q0,.93,0,1.85h.15q0-.93-.07-1.85ZM1.85,75.56,0,75.5v.16l1.85-.09Z"/></g></g></g></g></g></svg>