<?xml version="1.0" encoding="utf-8"?>
<!-- Generator: Adobe Illustrator 21.1.0, SVG Export Plug-In . SVG Version: 6.00 Build 0)  -->
<svg version="1.1" id="Warstwa_1" xmlns="http://www.w3.org/2000/svg" xmlns:xlink="http://www.w3.org/1999/xlink" x="0px" y="0px"
	 viewBox="0 0 1688.2 585.9" style="enable-background:new 0 0 1688.2 585.9;" xml:space="preserve">
<title>logo_Zasób 2</title>
<g id="Warstwa_2">
	<g id="Warstwa_1-2">
		<g id="Warstwa_1-3">
			<g id="Warstwa_2-2">
				<g id="svg1356">
					<g id="layer1">
						<g id="g2261">
							<g id="text">
								<path id="path1283" d="M264.7,261.2h95.8v-9.7h-85V113.7h-10.8V261.2z"/>
								<path id="path1285" d="M448,262.3c43.9,0,76.8-31.8,76.8-74.8s-32.9-74.8-76.8-74.8c-44.1,0-76.8,32-76.8,74.8
									S403.9,262.3,448,262.3z M448,252.4c-37.8,0-66-27.6-66-64.9s28.3-64.9,66-64.9s65.8,27.6,65.8,64.9S485.5,252.4,448,252.4
									L448,252.4z"/>
								<path id="path1288" d="M624.7,262.3c43.9,0,76.8-31.8,76.8-74.8s-32.9-74.8-76.8-74.8c-44.1,0-76.8,32-76.8,74.8
									S580.7,262.3,624.7,262.3z M624.7,252.4c-37.8,0-66-27.6-66-64.9s28.3-64.9,66-64.9s65.8,27.6,65.8,64.9
									S662.3,252.4,624.7,252.4L624.7,252.4z"/>
								<path id="path1290" d="M846.2,261.2h13.1l-69.4-80.5l65-67h-13.1l-92.2,94.8v-94.8h-10.8v147.5h10.8v-38.8l33.1-33.9
									L846.2,261.2z"/>
								<path id="path1292" d="M1091.7,261.2l-0.3-147.5h-8.9l-66,114l-66-114h-9.1v147.5h10.5V135.4l61.8,106.2h5.3l61.8-106.6
									l0.1,126.2H1091.7L1091.7,261.2z"/>
								<path id="path1294" d="M1200.8,262.3c36.7,0,59.3-21.5,59.3-63.7v-84.9h-10.8v84.5c0,36.9-17.5,54.2-48.3,54.2
									s-48.5-17.3-48.5-54.2v-84.5h-10.8v84.9C1141.7,240.8,1164.1,262.3,1200.8,262.3z"/>
								<path id="path1296" d="M1460.4,261.2l-0.1-147.5h-8.9l-66,114l-66-114h-9.1v147.5h10.6V135.4l61.8,106.2h5.2l61.8-106.6
									l0.1,126.2H1460.4z"/>
								<path id="path1300" d="M154,323.8l-34.9,34.9v112.6h49.8v-47.2h61.6v-37.5h-61.6v-25.3h70.2v-37.5H154z"/>
								<path id="path1302" d="M289.9,323.8L255,358.7v112.6h116.4v-38.6h-66.7v-109L289.9,323.8z"/>
								<path id="path1304" d="M513.8,323.8h-48.1l-30.4,51l-30.2-51h-52.5l55.7,93.4v54.2h49.8v-53.5L513.8,323.8z"/>
								<path id="path1306" d="M555.3,323.8l-34.9,34.9v112.6h49.8V323.8H555.3z"/>
								<path id="path1308" d="M691.1,323.8v67l-56.1-67h-40.9v147.5h48.5v-67l56.1,67h40.9V323.8H691.1z"/>
								<path id="path1310" d="M861.5,430.8c-5.7,2.4-11.9,3.6-18.1,3.6c-21.3,0-35.2-14.8-35.2-36.9c0-22.8,13.9-36.9,35.9-36.9
									c13.1,0,23.8,5.5,33.1,16.2l31.9-28c-15-18.3-38.4-28.4-67.5-28.4c-48.7,0-83.5,31.8-83.5,77.1s34.8,77.1,82.5,77.1
									c21.7,0,46.4-6.5,64.3-18.8v-62.4h-43.2v37.4H861.5z"/>
								<path id="path1312" d="M1066,474.7c28.9,0,51.7-10.5,66.2-29.5l-31.4-28c-8.6,11-19,17.3-32.3,17.3
									c-20.7,0-34.6-14.3-34.6-36.9s13.9-36.9,34.6-36.9c13.3,0,23.6,6.3,32.3,17.3l31.4-28c-14.6-19-37.3-29.5-66.2-29.5
									c-47.5,0-82.3,31.8-82.3,77.1S1018.5,474.7,1066,474.7z"/>
								<path id="path1314" d="M1411.7,323.8v67l-56.1-67h-40.9v147.5h48.5v-67l56.1,67h40.9V323.8H1411.7z"/>
								<path id="path1336" d="M1141.2,471.3h46.8l35.1-98.6l35.1,98.6h47.5l-59.6-147.5h-45.2L1141.2,471.3z"/>
								<path id="path1338" d="M655,215.3l-30.3-15.8l-30.3,15.8l30.3-52.5L655,215.3z"/>
								<path id="path1340" d="M478.3,215.3L448,199.5l-30.3,15.8l30.3-52.5L478.3,215.3z"/>
							</g>
						</g>
					</g>
				</g>
			</g>
		</g>
	</g>
</g>
</svg>
