<?xml version="1.0" encoding="utf-8"?>
<!-- Generator: Adobe Illustrator 21.1.0, SVG Export Plug-In . SVG Version: 6.00 Build 0)  -->
<svg version="1.1" id="Warstwa_1" xmlns="http://www.w3.org/2000/svg" xmlns:xlink="http://www.w3.org/1999/xlink" x="0px" y="0px"
	 viewBox="0 0 1341.3 362" style="enable-background:new 0 0 1341.3 362;" xml:space="preserve">
<style type="text/css">
	.st0{fill:#FFFFFF;}
</style>
<title>logo_Zasób 1</title>
<g id="Warstwa_2">
	<g id="Warstwa_1-2">
		<g id="Warstwa_2-2">
			<g id="Warstwa_1-2-2">
				<g id="Warstwa_1-3">
					<g id="Warstwa_2-2-2">
						<g id="svg1356">
							<g id="layer1">
								<g id="g2261">
									<g id="text">
										<path id="path1283" class="st0" d="M73.6,151.5h95.8v-9.7h-85V4H73.6V151.5z"/>
										<path id="path1285" class="st0" d="M257,152.6c43.9,0,76.8-31.8,76.8-74.8S300.9,3,257,3c-44.1,0-76.8,32-76.8,74.8
											S212.9,152.6,257,152.6z M257,142.7c-37.8,0-66-27.6-66-64.9s28.3-64.9,66-64.9s65.8,27.6,65.8,64.9
											S294.5,142.7,257,142.7z"/>
										<path id="path1288" class="st0" d="M433.6,152.6c43.9,0,76.8-31.8,76.8-74.8S477.6,3,433.6,3c-44.1,0-76.8,32-76.8,74.8
											S389.6,152.6,433.6,152.6z M433.6,142.7c-37.8,0-66-27.6-66-64.9s28.3-64.9,66-64.9s65.8,27.6,65.8,64.9
											S471.3,142.7,433.6,142.7L433.6,142.7z"/>
										<path id="path1290" class="st0" d="M655.2,151.5h13.1L598.8,71l65-67h-13.1l-92.2,94.8V4h-10.8v147.5h10.8v-38.8
											l33.1-33.9L655.2,151.5z"/>
										<path id="path1292" class="st0" d="M900.7,151.5L900.3,4h-8.9l-66,114l-66-114h-9.1v147.5h10.5V25.7l61.8,106.2h5.3
											l61.8-106.6l0.1,126.2H900.7L900.7,151.5z"/>
										<path id="path1294" class="st0" d="M1009.8,152.6c36.7,0,59.3-21.5,59.3-63.7V4h-10.8v84.5c0,36.9-17.5,54.2-48.3,54.2
											s-48.5-17.3-48.5-54.2V4h-10.8v84.9C950.7,131.1,973,152.6,1009.8,152.6z"/>
										<path id="path1296" class="st0" d="M1269.3,151.5L1269.3,4h-8.9l-66,114l-66-114h-9.1v147.5h10.6V25.7l61.8,106.2h5.2
											l61.8-106.6l0.1,126.2H1269.3z"/>
										<path id="path1300" class="st0" d="M34.9,211.1L0,246v112.6h49.8v-47.2h61.6v-37.5H49.8v-25.3H120v-37.5L34.9,211.1z"/>
										<path id="path1302" class="st0" d="M170.8,211.1L135.9,246v112.6h116.4V320h-66.7V211L170.8,211.1z"/>
										<path id="path1304" class="st0" d="M394.7,211.1h-48.1l-30.4,51l-30.2-51h-52.5l55.7,93.4v54.2H339v-53.5L394.7,211.1z"/>
										<path id="path1306" class="st0" d="M436.2,211.1L401.3,246v112.6h49.8V211.1H436.2z"/>
										<path id="path1308" class="st0" d="M572,211.1v67l-56.1-67H475v147.5h48.5v-67l56.1,67h40.9V211.1H572z"/>
										<path id="path1310" class="st0" d="M742.4,318.1c-5.7,2.4-11.9,3.6-18.1,3.6c-21.3,0-35.2-14.8-35.2-36.9
											c0-22.8,13.9-36.9,35.9-36.9c13.1,0,23.8,5.5,33.1,16.2l31.9-28c-15-18.3-38.4-28.4-67.5-28.4
											c-48.7,0-83.5,31.8-83.5,77.1s34.8,77.1,82.5,77.1c21.7,0,46.4-6.5,64.3-18.8v-62.4h-43.2v37.4L742.4,318.1z"/>
										<path id="path1312" class="st0" d="M946.9,362c28.9,0,51.7-10.5,66.2-29.5l-31.4-28c-8.6,11-19,17.3-32.3,17.3
											c-20.7,0-34.6-14.3-34.6-36.9s13.9-36.9,34.6-36.9c13.3,0,23.6,6.3,32.3,17.3l31.4-28c-14.6-19-37.3-29.5-66.2-29.5
											c-47.5,0-82.3,31.8-82.3,77.1S899.4,362,946.9,362z"/>
										<path id="path1314" class="st0" d="M1292.6,211.1v67l-56.1-67h-40.9v147.5h48.5v-67l56.1,67h40.9V211.1H1292.6z"/>
										<path id="path1336" class="st0" d="M1022.1,358.6h46.8L1104,260l35.1,98.6h47.5L1127,211.1h-45.2L1022.1,358.6z"/>
										<path id="path1338" class="st0" d="M464,105.6l-30.3-15.8l-30.3,15.8l30.3-52.5L464,105.6z"/>
										<path id="path1340" class="st0" d="M287.3,105.6L257,89.8l-30.3,15.8L257,53.1L287.3,105.6z"/>
									</g>
								</g>
							</g>
						</g>
					</g>
				</g>
			</g>
		</g>
	</g>
</g>
</svg>
