<?xml version="1.0" encoding="utf-8"?>
<!-- Generator: Adobe Illustrator 21.1.0, SVG Export Plug-In . SVG Version: 6.00 Build 0)  -->
<svg version="1.1" id="Warstwa_1" xmlns="http://www.w3.org/2000/svg" xmlns:xlink="http://www.w3.org/1999/xlink" x="0px" y="0px"
	 viewBox="0 0 3028 585.9" style="enable-background:new 0 0 3028 585.9;" xml:space="preserve">
<style type="text/css">
	.st0{fill:#FFFFFF;}
</style>
<title>logo_Zasób 2</title>
<g id="Warstwa_2">
	<g id="Warstwa_1-2">
		<g id="Warstwa_1-3">
			<g id="Warstwa_2-2">
				<g id="svg1356">
					<g id="layer1">
						<g id="g2261">
							<g id="text">
								<path id="path1283" class="st0" d="M168.7,357.2h95.8v-9.7h-85V209.7h-10.8V357.2z"/>
								<path id="path1285" class="st0" d="M352,358.3c43.9,0,76.8-31.8,76.8-74.8s-32.9-74.8-76.8-74.8c-44.1,0-76.8,32-76.8,74.8
									S307.9,358.3,352,358.3z M352,348.4c-37.8,0-66-27.6-66-64.9s28.3-64.9,66-64.9s65.8,27.6,65.8,64.9S389.5,348.4,352,348.4
									L352,348.4z"/>
								<path id="path1288" class="st0" d="M528.7,358.3c43.9,0,76.8-31.8,76.8-74.8s-32.9-74.8-76.8-74.8
									c-44.1,0-76.8,32-76.8,74.8S484.7,358.3,528.7,358.3z M528.7,348.4c-37.8,0-66-27.6-66-64.9s28.3-64.9,66-64.9
									s65.8,27.6,65.8,64.9S566.3,348.4,528.7,348.4L528.7,348.4z"/>
								<path id="path1290" class="st0" d="M750.2,357.2h13.1l-69.4-80.5l65-67h-13.1l-92.2,94.8v-94.8h-10.8v147.5h10.8v-38.8
									l33.1-33.9L750.2,357.2z"/>
								<path id="path1292" class="st0" d="M995.7,357.2l-0.3-147.5h-8.9l-66,114l-66-114h-9.1v147.5h10.5V231.4l61.8,106.2h5.3
									L984.8,231l0.1,126.2H995.7L995.7,357.2z"/>
								<path id="path1294" class="st0" d="M1104.8,358.3c36.7,0,59.3-21.5,59.3-63.7v-84.9h-10.8v84.5c0,36.9-17.5,54.2-48.3,54.2
									s-48.5-17.3-48.5-54.2v-84.5h-10.8v84.9C1045.7,336.8,1068.1,358.3,1104.8,358.3z"/>
								<path id="path1296" class="st0" d="M1364.4,357.2l-0.1-147.5h-8.9l-66,114l-66-114h-9.1v147.5h10.6V231.4l61.8,106.2h5.2
									l61.8-106.6l0.1,126.2L1364.4,357.2L1364.4,357.2z"/>
								<path id="path1300" class="st0" d="M1483,207.8l-34.9,34.9v112.6h49.8v-47.2h61.6v-37.5h-61.6v-25.3h70.2v-37.5H1483z"/>
								<path id="path1302" class="st0" d="M1618.9,207.8l-34.9,34.9v112.6h116.4v-38.6h-66.7v-109L1618.9,207.8z"/>
								<path id="path1304" class="st0" d="M1842.8,207.8h-48.1l-30.4,51l-30.2-51h-52.5l55.7,93.4v54.2h49.8v-53.5L1842.8,207.8z"
									/>
								<path id="path1306" class="st0" d="M1884.3,207.8l-34.9,34.9v112.6h49.8V207.8H1884.3z"/>
								<path id="path1308" class="st0" d="M2020.1,207.8v67l-56.1-67h-40.9v147.5h48.5v-67l56.1,67h40.9V207.8H2020.1z"/>
								<path id="path1310" class="st0" d="M2190.5,314.8c-5.7,2.4-11.9,3.6-18.1,3.6c-21.3,0-35.2-14.8-35.2-36.9
									c0-22.8,13.9-36.9,35.9-36.9c13.1,0,23.8,5.5,33.1,16.2l31.9-28c-15-18.3-38.4-28.4-67.5-28.4c-48.7,0-83.5,31.8-83.5,77.1
									s34.8,77.1,82.5,77.1c21.7,0,46.4-6.5,64.3-18.8v-62.4h-43.2v37.4L2190.5,314.8L2190.5,314.8z"/>
								<path id="path1312" class="st0" d="M2395,358.7c28.9,0,51.7-10.5,66.2-29.5l-31.4-28c-8.6,11-19,17.3-32.3,17.3
									c-20.7,0-34.6-14.3-34.6-36.9s13.9-36.9,34.6-36.9c13.3,0,23.6,6.3,32.3,17.3l31.4-28c-14.6-19-37.3-29.5-66.2-29.5
									c-47.5,0-82.3,31.8-82.3,77.1S2347.5,358.7,2395,358.7z"/>
								<path id="path1314" class="st0" d="M2740.7,207.8v67l-56.1-67h-40.9v147.5h48.5v-67l56.1,67h40.9V207.8H2740.7z"/>
								<path id="path1336" class="st0" d="M2470.2,355.3h46.8l35.1-98.6l35.1,98.6h47.5l-59.6-147.5h-45.2L2470.2,355.3z"/>
								<path id="path1338" class="st0" d="M559,311.3l-30.3-15.8l-30.3,15.8l30.3-52.5L559,311.3z"/>
								<path id="path1340" class="st0" d="M382.3,311.3L352,295.5l-30.3,15.8l30.3-52.5L382.3,311.3z"/>
							</g>
						</g>
					</g>
				</g>
			</g>
		</g>
	</g>
</g>
</svg>
